<svg xmlns="http://www.w3.org/2000/svg" viewBox="0 0 540 540"><path fill="#fc0" d="M491 267a169 160 0 0 1-192 61 169 160 0 0 1-116-156A169 160 0 0 1 306 21a169 160 0 0 1 189 69l-143 85Z"/><path fill="#0183c3" d="M18 365v-61h8v-7h7v-7h29v7h8v7h7v61h-9v-6h-8v6h-7v-7H43v7h-8v-6h-8v6z"/><path fill="#fefefe" d="M27 305h17v17H27z"/><path fill="#0a74c1" d="M37 314h7v7h-7z"/><path fill="#fefefe" d="M52 305h17v17H52z"/><path fill="#0a74c1" d="M61 314h7v7h-7z"/><path fill="#d42a34" d="M93 366v-62h7v-7h8v-7h29v7h8v7h7v62h-9v-7h-9v6h-7v-7h-9v7h-9v-6h-7v6z"/><path fill="#fefefe" d="M102 305h17v17h-17z"/><path fill="#0a74c1" d="M112 314h7v7h-7z"/><path fill="#fefefe" d="M127 305h17v17h-17z"/><path fill="#0a74c1" d="M136 314h7v7h-7z"/><path fill="#ee6a83" d="M166 365v-62h8v-7h7v-6h29v7h8v6h7v62h-9v-7h-9v7h-6v-7h-10v7h-9v-6h-7v6z"/><path fill="#fefefe" d="M175 305h17v17h-17z"/><path fill="#0a74c1" d="M185 314h7v7h-7z"/><path fill="#fefefe" d="M200 305h17v17h-17z"/><path fill="#0a74c1" d="M209 314h7v7h-7z"/><path fill="#f28b24" d="M238 366v-61h8v-8h8v-6h28v7h8v6h8v62h-9v-7h-9v7h-7v-7h-10v7h-8v-6h-8v6z"/><path fill="#fefefe" d="M248 306h17v17h-17z"/><path fill="#0a74c1" d="M258 315h7v7h-7z"/><path fill="#fefefe" d="M273 306h17v17h-17z"/><path fill="#0a74c1" d="M282 315h7v7h-7z"/><path fill="#fff" d="M-76 461q0 6-3 10-3 5-8 8-5 2-12 2h-15v22h-13v-62h27q12 0 18 5t6 15zm-13 0q0-10-12-10h-13v20h13q6 0 9-2 3-3 3-8zm59 42-6-16h-23l-6 16h-13l23-62h15l23 62zm-18-52v1l-1 3-7 22h17l-6-17-2-6zm68 43q12 0 16-12l12 4q-4 9-11 14-7 4-17 4-15 0-23-9-8-8-8-23t8-24q7-8 22-8 11 0 18 5 7 4 10 12l-12 4q-1-5-5-8-5-3-10-3-9 0-14 6-4 5-4 16 0 10 4 16 5 6 14 6zm87 9v-40l1-11-5 16-11 35h-9l-11-35-5-16 1 14v37H56v-62h17l11 35 1 3 3 8 2-10 12-36h17v62zm68 0-6-16h-23l-6 16h-13l23-62h15l23 62zm-18-52v1l-1 3-7 22h17l-6-17-2-6zm77 52-27-48v48h-11v-62h15l27 48-1-12v-36h12v62z" aria-label="PACMAN" font-family="Liberation Sans" font-size="90" font-weight="700" style="line-height:.95;-inkscape-font-specification:&quot;Liberation Sans Bold&quot;;white-space:pre;inline-size:513.13" transform="matrix(1.1 0 0 1.2 202 -123)"/></svg>